<svg width="416" height="100" viewBox="0 0 416 100" fill="none" xmlns="http://www.w3.org/2000/svg">
<path d="M47.3618 37.2055V70.9099C47.3618 73.7411 49.6567 76.0361 52.4879 76.0361H94.873C97.7043 76.0361 100 73.7411 100 70.9099V37.2055H47.3618Z" fill="#ED5176"/>
<path d="M98.0026 28.0228C94.6083 28.0228 91.8571 25.2716 91.8571 21.8773V9.27658C91.8571 8.14438 90.9386 7.22656 89.8064 7.22656H85.5141C85.4401 7.22656 85.3676 7.23038 85.2959 7.23801C86.3258 7.34711 87.1284 8.21762 87.1284 9.27658V21.8773C87.1284 25.2716 89.8796 28.0228 93.2739 28.0228C94.3771 28.0228 95.2713 28.9169 95.2713 30.0201V70.9099C95.2713 73.7411 92.9764 76.0361 90.1443 76.0361H94.873C97.7043 76.0361 100 73.7411 100 70.9099V30.0201C100 28.9177 99.1058 28.0228 98.0026 28.0228Z" fill="#BA365F"/>
<path d="M98.0026 28.0228C94.6083 28.0228 91.8571 25.2716 91.8571 21.8773V9.27658C91.8571 8.14438 90.9386 7.22656 89.8064 7.22656H85.5141C84.3819 7.22656 83.4641 8.14438 83.4641 9.27658V16.6527C83.4641 22.0177 79.2122 26.506 73.848 26.5961C68.3685 26.6869 63.8977 22.2725 63.8977 16.8144V9.27658C63.8977 8.14438 62.9791 7.22656 61.8469 7.22656H57.5546C56.4224 7.22656 55.5046 8.14438 55.5046 9.27658V21.8781C55.5046 25.2716 52.7534 28.0228 49.3591 28.0228C48.2559 28.0228 47.361 28.9177 47.361 30.0209V37.2055L73.6801 49.8329L100 37.2055V30.0201C100 28.9177 99.1058 28.0228 98.0026 28.0228Z" fill="#E9E9EA"/>
<path d="M98.0026 28.0228C94.6083 28.0228 91.8571 25.2716 91.8571 21.8773V9.27658C91.8571 8.14438 90.9386 7.22656 89.8064 7.22656H85.5141C85.4958 7.22656 85.4774 7.22733 85.4591 7.22733C85.4584 7.22733 85.4576 7.22733 85.4561 7.22733C85.4027 7.22885 85.3493 7.23267 85.2959 7.23801C86.3258 7.34711 87.1284 8.21838 87.1284 9.27658V21.8781C87.1284 25.2716 89.8796 28.0228 93.2739 28.0228C94.3771 28.0228 95.2713 28.9177 95.2713 30.0209V39.4745L100 37.2055V30.0201C100 28.9177 99.1058 28.0228 98.0026 28.0228Z" fill="#C5C4CC"/>
<path d="M22.3564 92.662H17.8673C16.9785 92.662 16.2575 91.9411 16.2575 91.0522V14.9124C16.2575 14.0228 16.9785 13.3026 17.8673 13.3026H22.3564C23.2452 13.3026 23.9655 14.0236 23.9655 14.9124V91.0522C23.9655 91.9411 23.2452 92.662 22.3564 92.662Z" fill="#E9E9EA"/>
<path d="M16.2575 38.4384H23.9655V42.9657H16.2575V38.4384Z" fill="#C5C4CC"/>
<path d="M34.4788 38.4384H5.74417C2.57187 38.4384 0 35.8665 0 32.6935C0 29.5212 2.57187 26.9493 5.74417 26.9493H34.4788C37.6511 26.9493 40.2229 29.5212 40.2229 32.6935C40.2229 35.8665 37.6511 38.4384 34.4788 38.4384Z" fill="#575B7A"/>
<path d="M26.9745 19.3787H13.2484C10.8109 19.3787 8.83484 21.3547 8.83484 23.7923V26.9493H31.3889V23.7923C31.3889 21.3547 29.4128 19.3787 26.9745 19.3787Z" fill="#6A7193"/>
<path d="M34.4788 67.5262H5.74417C2.57187 67.5262 0 70.0981 0 73.2704C0 76.4427 2.57187 79.0146 5.74417 79.0146H34.4788C37.6511 79.0146 40.2229 76.4427 40.2229 73.2704C40.2229 70.0981 37.6511 67.5262 34.4788 67.5262Z" fill="#575B7A"/>
<path d="M34.4788 26.9493H29.6501C32.8224 26.9493 35.3943 29.5212 35.3943 32.6935C35.3943 35.8665 32.8224 38.4384 29.6501 38.4384H34.4788C37.6511 38.4384 40.2229 35.8665 40.2229 32.6935C40.2229 29.5212 37.6511 26.9493 34.4788 26.9493Z" fill="#252D4C"/>
<path d="M34.4788 67.5262H29.6501C32.8224 67.5262 35.3943 70.0981 35.3943 73.2704C35.3943 76.4427 32.8224 79.0146 29.6501 79.0146H34.4788C37.6511 79.0146 40.2229 76.4427 40.2229 73.2704C40.2229 70.0981 37.6511 67.5262 34.4788 67.5262Z" fill="#252D4C"/>
<path d="M26.9745 86.586H13.2484C10.8109 86.586 8.83484 84.61 8.83484 82.1724V79.0146H31.3889V82.1724C31.3889 84.61 29.4128 86.586 26.9745 86.586Z" fill="#6A7193"/>
<path d="M26.9745 19.3787H22.1458C24.5834 19.3787 26.5594 21.3547 26.5594 23.7923V26.9493H31.3889V23.7923C31.3889 21.3547 29.4128 19.3787 26.9745 19.3787Z" fill="#575B7A"/>
<path d="M26.5594 79.0146V82.1724C26.5594 84.6092 24.5834 86.586 22.1458 86.586H26.9745C29.4121 86.586 31.3889 84.6092 31.3889 82.1724V79.0146H26.5594Z" fill="#575B7A"/>
<path d="M33.9005 90.7372H88.3049C90.654 90.7372 92.5583 88.8329 92.5583 86.4838V61.4578C92.5583 59.2239 90.7478 57.4135 88.5139 57.4135H87.5763C86.4052 57.4135 85.3645 58.1589 84.9869 59.2674C83.5045 63.6238 79.4128 66.5535 74.8108 66.5535C70.2866 66.5535 66.2468 63.7215 64.7049 59.4681C64.2586 58.2344 63.0875 57.4135 61.7752 57.4135H58.11C57.3776 57.4135 56.6589 57.6118 56.031 57.9887L29.2755 74.0265C26.564 75.6516 24.9046 78.5805 24.9046 81.7421C24.9046 86.7096 28.9322 90.7372 33.9005 90.7372Z" fill="#8CBAFA"/>
<path d="M88.5139 57.4135H87.5763C86.8538 57.4135 86.1809 57.6965 85.6834 58.1741C86.702 58.9088 87.3657 60.1059 87.3657 61.4578V86.4845C87.3657 88.8329 85.4614 90.7372 83.1123 90.7372H88.3049C90.654 90.7372 92.5583 88.8329 92.5583 86.4845V61.4578C92.5583 59.2239 90.7478 57.4135 88.5139 57.4135Z" fill="#5692D8"/>
<path d="M53.6331 59.4261L48.4848 62.5122L68.1793 90.7372H75.4814L53.6331 59.4261Z" fill="#F9AA4B"/>
<path d="M53.6812 90.7372H60.9833L43.4105 65.5533L38.2622 68.6394L53.6812 90.7372Z" fill="#F9AA4B"/>
<path d="M24.9107 81.9778C25.0359 86.8362 29.0108 90.7372 33.9005 90.7372H88.3049C90.654 90.7372 92.5583 88.8329 92.5583 86.4838V81.9778H24.9107Z" fill="#E9E9EA"/>
<path d="M87.3657 86.4845C87.3657 88.8321 85.4637 90.7356 83.1161 90.7372H88.3049C90.654 90.7372 92.5583 88.8329 92.5583 86.4845V81.9778H87.3657V86.4845Z" fill="#C5C4CC"/>
<path d="M40.5869 73.1102L56.5338 63.5513C57.6813 62.8639 58.3832 61.6249 58.3832 60.2875V57.4127H58.11C57.3776 57.4127 56.6589 57.6118 56.031 57.9887L36.293 69.8196C35.4584 70.3201 35.2463 71.4371 35.8391 72.2084C36.9637 73.671 39.0045 74.0585 40.5869 73.1102Z" fill="#E9E9EA"/>
<path d="M74.614 40.5434H74.4301V34.6283C74.4301 33.3473 73.3879 32.3051 72.1069 32.3051H71.093C70.2599 32.3051 69.5839 32.9803 69.5839 33.8142C69.5839 34.6481 70.2599 35.3233 71.093 35.3233H71.4127V40.5434H71.228C70.3949 40.5434 69.7189 41.2186 69.7189 42.0525C69.7189 42.8864 70.3949 43.5616 71.228 43.5616H74.614C75.4478 43.5616 76.123 42.8864 76.123 42.0525C76.123 41.2186 75.4478 40.5434 74.614 40.5434Z" fill="#575B7A"/>
<path d="M160.835 77L149.405 63.005V77H143.105V45.59H149.405V59.675L160.835 45.59H168.44L155.48 61.16L168.8 77H160.835ZM171.324 64.535C171.324 61.955 171.849 59.705 172.899 57.785C173.949 55.835 175.404 54.335 177.264 53.285C179.124 52.205 181.254 51.665 183.654 51.665C186.744 51.665 189.294 52.445 191.304 54.005C193.344 55.535 194.709 57.695 195.399 60.485H188.604C188.244 59.405 187.629 58.565 186.759 57.965C185.919 57.335 184.869 57.02 183.609 57.02C181.809 57.02 180.384 57.68 179.334 59C178.284 60.29 177.759 62.135 177.759 64.535C177.759 66.905 178.284 68.75 179.334 70.07C180.384 71.36 181.809 72.005 183.609 72.005C186.159 72.005 187.824 70.865 188.604 68.585H195.399C194.709 71.285 193.344 73.43 191.304 75.02C189.264 76.61 186.714 77.405 183.654 77.405C181.254 77.405 179.124 76.88 177.264 75.83C175.404 74.75 173.949 73.25 172.899 71.33C171.849 69.38 171.324 67.115 171.324 64.535ZM198.394 64.445C198.394 61.925 198.889 59.69 199.879 57.74C200.899 55.79 202.264 54.29 203.974 53.24C205.714 52.19 207.649 51.665 209.779 51.665C211.639 51.665 213.259 52.04 214.639 52.79C216.049 53.54 217.174 54.485 218.014 55.625V52.07H224.359V77H218.014V73.355C217.204 74.525 216.079 75.5 214.639 76.28C213.229 77.03 211.594 77.405 209.734 77.405C207.634 77.405 205.714 76.865 203.974 75.785C202.264 74.705 200.899 73.19 199.879 71.24C198.889 69.26 198.394 66.995 198.394 64.445ZM218.014 64.535C218.014 63.005 217.714 61.7 217.114 60.62C216.514 59.51 215.704 58.67 214.684 58.1C213.664 57.5 212.569 57.2 211.399 57.2C210.229 57.2 209.149 57.485 208.159 58.055C207.169 58.625 206.359 59.465 205.729 60.575C205.129 61.655 204.829 62.945 204.829 64.445C204.829 65.945 205.129 67.265 205.729 68.405C206.359 69.515 207.169 70.37 208.159 70.97C209.179 71.57 210.259 71.87 211.399 71.87C212.569 71.87 213.664 71.585 214.684 71.015C215.704 70.415 216.514 69.575 217.114 68.495C217.714 67.385 218.014 66.065 218.014 64.535ZM236.812 43.7V77H230.512V43.7H236.812Z" fill="#FC7753"/>
<path d="M245.827 77.315C244.687 77.315 243.742 76.97 242.992 76.28C242.272 75.56 241.912 74.675 241.912 73.625C241.912 72.575 242.272 71.705 242.992 71.015C243.742 70.295 244.687 69.935 245.827 69.935C246.937 69.935 247.852 70.295 248.572 71.015C249.292 71.705 249.652 72.575 249.652 73.625C249.652 74.675 249.292 75.56 248.572 76.28C247.852 76.97 246.937 77.315 245.827 77.315ZM253.106 64.535C253.106 61.955 253.631 59.705 254.681 57.785C255.731 55.835 257.186 54.335 259.046 53.285C260.906 52.205 263.036 51.665 265.436 51.665C268.526 51.665 271.076 52.445 273.086 54.005C275.126 55.535 276.491 57.695 277.181 60.485H270.386C270.026 59.405 269.411 58.565 268.541 57.965C267.701 57.335 266.651 57.02 265.391 57.02C263.591 57.02 262.166 57.68 261.116 59C260.066 60.29 259.541 62.135 259.541 64.535C259.541 66.905 260.066 68.75 261.116 70.07C262.166 71.36 263.591 72.005 265.391 72.005C267.941 72.005 269.606 70.865 270.386 68.585H277.181C276.491 71.285 275.126 73.43 273.086 75.02C271.046 76.61 268.496 77.405 265.436 77.405C263.036 77.405 260.906 76.88 259.046 75.83C257.186 74.75 255.731 73.25 254.681 71.33C253.631 69.38 253.106 67.115 253.106 64.535ZM305.331 52.07V77H298.986V73.85C298.176 74.93 297.111 75.785 295.791 76.415C294.501 77.015 293.091 77.315 291.561 77.315C289.611 77.315 287.886 76.91 286.386 76.1C284.886 75.26 283.701 74.045 282.831 72.455C281.991 70.835 281.571 68.915 281.571 66.695V52.07H287.871V65.795C287.871 67.775 288.366 69.305 289.356 70.385C290.346 71.435 291.696 71.96 293.406 71.96C295.146 71.96 296.511 71.435 297.501 70.385C298.491 69.305 298.986 67.775 298.986 65.795V52.07H305.331ZM317.847 43.7V77H311.547V43.7H317.847ZM322.452 64.445C322.452 61.925 322.947 59.69 323.937 57.74C324.957 55.79 326.322 54.29 328.032 53.24C329.772 52.19 331.707 51.665 333.837 51.665C335.697 51.665 337.317 52.04 338.697 52.79C340.107 53.54 341.232 54.485 342.072 55.625V52.07H348.417V77H342.072V73.355C341.262 74.525 340.137 75.5 338.697 76.28C337.287 77.03 335.652 77.405 333.792 77.405C331.692 77.405 329.772 76.865 328.032 75.785C326.322 74.705 324.957 73.19 323.937 71.24C322.947 69.26 322.452 66.995 322.452 64.445ZM342.072 64.535C342.072 63.005 341.772 61.7 341.172 60.62C340.572 59.51 339.762 58.67 338.742 58.1C337.722 57.5 336.627 57.2 335.457 57.2C334.287 57.2 333.207 57.485 332.217 58.055C331.227 58.625 330.417 59.465 329.787 60.575C329.187 61.655 328.887 62.945 328.887 64.445C328.887 65.945 329.187 67.265 329.787 68.405C330.417 69.515 331.227 70.37 332.217 70.97C333.237 71.57 334.317 71.87 335.457 71.87C336.627 71.87 337.722 71.585 338.742 71.015C339.762 70.415 340.572 69.575 341.172 68.495C341.772 67.385 342.072 66.065 342.072 64.535ZM361.905 57.245V69.305C361.905 70.145 362.1 70.76 362.49 71.15C362.91 71.51 363.6 71.69 364.56 71.69H367.485V77H363.525C358.215 77 355.56 74.42 355.56 69.26V57.245H352.59V52.07H355.56V45.905H361.905V52.07H367.485V57.245H361.905ZM383.086 77.405C380.686 77.405 378.526 76.88 376.606 75.83C374.686 74.75 373.171 73.235 372.061 71.285C370.981 69.335 370.441 67.085 370.441 64.535C370.441 61.985 370.996 59.735 372.106 57.785C373.246 55.835 374.791 54.335 376.741 53.285C378.691 52.205 380.866 51.665 383.266 51.665C385.666 51.665 387.841 52.205 389.791 53.285C391.741 54.335 393.271 55.835 394.381 57.785C395.521 59.735 396.091 61.985 396.091 64.535C396.091 67.085 395.506 69.335 394.336 71.285C393.196 73.235 391.636 74.75 389.656 75.83C387.706 76.88 385.516 77.405 383.086 77.405ZM383.086 71.915C384.226 71.915 385.291 71.645 386.281 71.105C387.301 70.535 388.111 69.695 388.711 68.585C389.311 67.475 389.611 66.125 389.611 64.535C389.611 62.165 388.981 60.35 387.721 59.09C386.491 57.8 384.976 57.155 383.176 57.155C381.376 57.155 379.861 57.8 378.631 59.09C377.431 60.35 376.831 62.165 376.831 64.535C376.831 66.905 377.416 68.735 378.586 70.025C379.786 71.285 381.286 71.915 383.086 71.915ZM407.012 55.94C407.822 54.62 408.872 53.585 410.162 52.835C411.482 52.085 412.982 51.71 414.662 51.71V58.325H412.997C411.017 58.325 409.517 58.79 408.497 59.72C407.507 60.65 407.012 62.27 407.012 64.58V77H400.712V52.07H407.012V55.94Z" fill="#C2CFB2"/>
</svg>
